<svg width="800" height="240" viewBox="0 0 800 240" fill="none" xmlns="http://www.w3.org/2000/svg">
<path d="M698.324 107.897C708.825 93.4752 733.663 95.8787 745.78 100.886C759.511 107.296 757.559 116.91 754.867 120.916C752.847 122.585 748.869 123.449 743.76 120.916C737.702 117.911 730.634 115.908 726.596 115.908C722.893 115.908 715.489 117.253 715.489 122.919C715.489 128.928 724.576 128.46 737.702 131.932C752.847 135.938 760.925 142.948 759.915 155.967C758.906 168.987 746.789 178 728.615 178C714.076 178 705.729 174.328 703.373 172.993C700.344 171.657 693.882 167.585 692.266 161.976C690.247 154.966 700.232 148.194 704.383 149.959C711.451 152.963 709.203 155.248 719.528 158.972C729.853 162.696 734 158.638 735.683 155.967C736.692 152.963 736.693 146.153 725.586 143.95C714.479 141.746 705.729 139.61 701.353 136.939C695.969 133.267 687.824 122.318 698.324 107.897Z" fill="#8AA79A"/>
<path d="M516.075 73.3271C530.773 74.3148 555.025 79.2531 556.495 110.857C557.964 142.461 524.649 149.704 507.807 149.375V170.115C507.807 174.856 504.662 177.028 500.402 177.028H489.379C483.003 177.028 482.402 172.497 482.093 170.174L482.086 170.115C481.779 141.803 482.086 93.0803 482.086 85.1787C482.086 77.2777 488.823 74.3145 491.272 74.3145L516.075 73.3271ZM508.494 97.0342C507.575 97.0342 505.738 96.8368 505.738 99.9971V122.713C505.738 123.701 506.289 125.676 508.494 125.676C511.25 125.676 531.46 126.663 531.46 109.873C531.459 96.4416 516.761 97.0341 508.494 97.0342Z" fill="#8AA79A"/>
<path d="M440.2 96.4447C436.04 97.2502 435 101.479 435 103.493V169.945C435 177.555 437.773 177.22 441.24 177.555C444.706 177.891 451.64 178.361 455.8 177.555C459.96 176.75 461 171.623 461 169.945V103.493C461 97.8543 457.533 96.4447 455.8 96.4447C452.333 96.1091 444.36 95.6393 440.2 96.4447Z" fill="#6F8F7B"/>
<path d="M658.2 71.5917C654.04 72.6632 653 78.2889 653 80.9678V169.372C653 173.658 656.466 176.515 658.2 177.408C661.666 177.855 669.64 178.48 673.8 177.408C677.96 176.337 679 171.604 679 169.372V80.9678C679 73.4668 675.533 71.5916 673.8 71.5917C670.333 71.1452 662.36 70.5201 658.2 71.5917Z" fill="#8AA79A"/>
<path d="M447.56 69C441.288 69 434.077 69 433 73.3846C434.077 80.4 437.307 86.1 447.56 88C457.769 86.1 459.923 80.4 461 73.3846C459.923 69 453.832 69 447.56 69Z" fill="#6F8F7B"/>
<path d="M230.857 156.827C229.36 163.007 225.26 167.52 223.398 169.003L218.122 185.389L234.672 184.63L251.409 175.166L267.165 162.088L276.423 144.912L275.929 131.268L264.268 120.53L245.674 121.308L237.505 130.224C235.913 136.517 232.354 150.647 230.857 156.827Z" fill="#6F8F7B"/>
<path d="M240.831 179.947C239.897 172.152 232.986 166.605 229.076 164.671L232.554 154.759C245.377 158.805 249.024 170.613 249.771 176.087L240.831 179.947Z" fill="#E9F1ED"/>
<path d="M236.191 139.293L240.36 129.06C264.945 132.622 271.193 146.399 272.132 153.023L264.611 163.402C260.015 148.848 244.01 141.443 236.191 139.293Z" fill="#E9F1ED"/>
<path d="M233.269 148.339C230.317 163.007 225.195 168.936 222.293 169.953L220.623 185.436C247.948 186.949 274.32 157.806 276.446 144.719C278.572 131.631 271.491 122.684 261.731 120.338C253.924 118.462 247.807 119.934 243.197 124.316C238.586 128.698 236.22 133.671 233.269 148.339Z" stroke="#6F8F7B" stroke-width="6"/>
<path d="M59.9132 133.719L34.2738 141.492L34.7539 151.11C36.16 155.139 39.087 163.428 39.5461 164.35C40.0053 165.271 43.7174 171.357 45.5161 174.284L58.2025 182.21L77.8852 185.459L84.1257 184.262L83.5329 172.386L81.8901 162.236L78.1426 153.372L75.3956 147.999L67.7575 139.821L59.9132 133.719Z" fill="#6F8F7B"/>
<path d="M40.3859 152.206L35.6955 145.144L35.5109 141.446L36.0057 136.876C36.5201 135.455 37.5646 132.516 37.6279 132.13C37.6913 131.744 39.14 128.626 39.8564 127.115L42.9805 123.49L46.0808 119.389L50.8772 116.159L57.8295 114.735L61.6951 115.619L60.9167 118.648L58.1987 122.133L57.3275 127.439L59.6262 132.108L62.8505 138.765L57.0589 136.543L59.378 145.756L50.1782 139.398L50.0109 150.53L42.606 142.886L40.3859 152.206Z" fill="#E9F1ED"/>
<path d="M83.3225 176.649C83.3434 176.418 83.1582 173.915 83.1737 173.666M83.1737 173.666C82.4666 164.851 81.2526 148.856 67.3541 139.807C53.029 130.48 57.9285 121.11 62.1688 117.591C63.0999 116.508 63.4826 114.513 57.565 115.191C51.6475 115.869 47.7757 118.469 46.5795 119.684C40.2082 124.067 29.5812 138.465 38.0433 160.995C46.5053 183.526 71.705 186.717 83.3676 184.899L83.1737 173.666Z" stroke="#6F8F7B" stroke-width="6"/>
<path d="M113.199 29.2339C118.881 30.2173 124.854 42.7554 127.13 48.9015C119.891 48.9015 102.955 66.1107 100.36 69.252C98.2842 71.7651 93.3036 83.5019 91.0727 89.0562L89.9801 116.782C88.8874 111.865 85.8827 66.1107 86.7022 54.7745C87.5216 43.4383 89.2972 38.3848 91.0727 36.4727C92.8483 34.5605 106.097 28.0047 113.199 29.2339Z" fill="#6F8F7B"/>
<path d="M195.011 29.2339C189.329 30.2173 183.356 42.7554 181.079 48.9015C188.318 48.9015 205.254 66.1107 207.849 69.252C209.925 71.7651 214.906 83.5019 217.137 89.0562L218.229 116.782C219.322 111.865 222.327 66.1107 221.507 54.7745C220.688 43.4383 218.912 38.3848 217.137 36.4727C215.361 34.5605 202.113 28.0047 195.011 29.2339Z" fill="#6F8F7B"/>
<path d="M134.369 44.6676C133.64 38.1117 135.352 25 148.027 25C160.701 25 160.865 25 159.363 25C164.143 25 173.294 28.8242 172.748 45.2139" stroke="#6F8F7B" stroke-width="6"/>
<path d="M87.3848 189.58L91.0725 95.2025C92.8936 78.312 107.763 44.5311 152.67 44.5311C197.578 44.5311 213.312 76.4909 216.59 95.2025L219.868 189.58C219.759 209.794 201.521 213.572 192.415 212.935H111.969C92.1925 212.935 87.3393 197.365 87.3848 189.58Z" fill="#E9F1ED" stroke="#6F8F7B" stroke-width="6"/>
<path d="M92.5784 45.4932C90.5988 60.3978 91.7536 75.9051 92.5784 81.7957C95.1079 75.1105 100.598 67.777 103.026 64.9458C101.514 59.1922 95.0529 46.8631 94.0906 44.5343C93.3208 42.6712 92.7617 44.3973 92.5784 45.4932Z" fill="#E9F1ED"/>
<path d="M215.325 45.4932C217.304 60.3978 216.15 75.9051 215.325 81.7957C212.795 75.1105 207.305 67.777 204.877 64.9458C206.389 59.1922 212.85 46.8631 213.812 44.5343C214.582 42.6712 215.141 44.3973 215.325 45.4932Z" fill="#E9F1ED"/>
<path d="M87.6666 185.71C87.6211 193.495 92.3303 209.065 112.107 209.065C131.884 209.065 173.978 209.065 192.553 209.065C201.659 209.702 219.703 205.924 219.812 185.71" stroke="#6F8F7B" stroke-width="4"/>
<line x1="126.586" y1="99.4633" x2="126.586" y2="123.708" stroke="#6F8F7B" stroke-width="12" stroke-linecap="round"/>
<line x1="182.967" y1="99.4632" x2="182.967" y2="123.708" stroke="#6F8F7B" stroke-width="12" stroke-linecap="round"/>
<path d="M154.92 132C150.216 132 144.808 132 144 135.231C144.808 140.4 147.231 144.6 154.92 146C162.577 144.6 164.192 140.4 165 135.231C164.192 132 159.624 132 154.92 132Z" fill="#6F8F7B"/>
<path d="M284 68.8841C284 64.8449 286.705 63.8352 288.058 63.8352C328.642 58.7862 357.051 61.8156 362.124 62.8254C366.182 63.6332 367.197 66.5279 367.197 67.8743V82.0114C367.197 85.2427 365.168 86.0506 364.153 86.0506H339.803C340.479 112.305 341.832 166.026 341.832 170.873C341.832 175.72 338.45 176.932 336.759 176.932H316.467C312.409 176.932 312.07 172.893 312.409 170.873V86.0506C305.306 86.7237 290.696 88.0701 289.073 88.0701C287.449 88.0701 286.367 85.3774 286.029 84.031C285.353 80.665 284 72.9233 284 68.8841Z" fill="#6F8F7B"/>
<path d="M364.153 170.873V102.207C364.153 100.591 367.535 99.5144 369.226 99.1778H384.445C390.127 99.1778 390.871 101.197 390.533 102.207V110.285C398.649 101.197 412.854 99.1778 416.912 99.1778C420.159 99.1778 422.323 101.197 423 102.207V117.354C423 121.393 420.294 122.403 418.941 122.403C403.519 119.979 394.253 128.798 391.547 133.511V170.873C391.547 176.528 386.812 177.268 384.445 176.932H371.255C367.197 176.932 364.829 172.893 364.153 170.873Z" fill="#6F8F7B"/>
<path d="M572.667 101.52C585.755 97.4933 596.831 95.4796 613.946 97.4931C627.638 99.1041 633.075 106.554 635.089 117.629V171.997C635.089 176.024 632.404 177.702 631.061 178.038H617.973C614.752 178.038 613.946 177.031 611.932 174.011V166.963C595.823 175.017 563.404 184.078 562.598 155.888C561.793 127.697 593.81 126.691 609.919 129.711C609.919 114.609 600.857 116.622 594.816 117.629C588.776 118.636 587.768 121.656 578.707 123.67C572.667 125.012 568.438 119.843 567.633 112.595C566.827 105.346 570.653 102.192 572.667 101.52ZM609.949 144.108C609.919 143.592 606.896 140.602 595.825 141.226C589.932 141.557 585.857 144.177 586.331 152.596C586.726 159.606 592.785 162.236 605.132 156.538C610.07 154.259 610.042 153.749 609.949 152.1C609.856 150.45 610.133 147.373 609.949 144.108Z" fill="#8AA79A"/>
</svg>
