<svg width="400" height="120" viewBox="0 0 400 120" fill="none" xmlns="http://www.w3.org/2000/svg">
<path d="M345.507 54C350.707 46.8 363.007 48 369.007 50.5C375.807 53.7 374.84 58.5 373.507 60.5C372.507 61.3334 370.537 61.7649 368.007 60.5C365.007 59 361.507 58 359.507 58C357.673 58 354.007 58.6716 354.007 61.5C354.007 64.5 358.507 64.2667 365.007 66C372.507 68 376.507 71.5 376.007 78C375.507 84.5 369.507 89 360.507 89C353.307 89 349.174 87.1667 348.007 86.5C346.507 85.8333 343.307 83.8 342.507 81C341.507 77.5 346.452 74.1192 348.507 75C352.007 76.5 350.894 77.6407 356.007 79.5C361.12 81.3593 363.173 79.3334 364.007 78C364.507 76.5 364.507 73.1 359.007 72C353.507 70.9 349.173 69.8334 347.007 68.5C344.34 66.6667 340.307 61.2 345.507 54Z" fill="#8AA79A"/>
<path d="M254.903 37C262.202 37.4905 274.246 39.9428 274.976 55.6377C275.706 71.3329 259.161 74.9301 250.798 74.7666V85.0664C250.798 87.4207 249.235 88.5 247.12 88.5H241.645C238.479 88.4998 238.181 86.2494 238.028 85.0957L238.024 85.0664C237.872 71.0061 238.024 46.8096 238.024 42.8857C238.024 38.9621 241.369 37.4904 242.586 37.4902L254.903 37ZM251.139 48.7734C250.682 48.7734 249.77 48.6756 249.77 50.2451V61.5254C249.77 62.0159 250.044 62.9971 251.139 62.9971C252.507 62.9971 262.544 63.4874 262.544 55.1494C262.544 48.4791 255.244 48.7734 251.139 48.7734Z" fill="#8AA79A"/>
<path d="M217.6 48.2224C215.52 48.6251 215 50.7395 215 51.7464V84.9726C215 88.7776 216.387 88.6098 218.12 88.7776C219.853 88.9454 223.32 89.1804 225.4 88.7776C227.48 88.3749 228 85.8117 228 84.9726V51.7464C228 48.9272 226.267 48.2224 225.4 48.2224C223.667 48.0546 219.68 47.8196 217.6 48.2224Z" fill="#6F8F7B"/>
<path d="M325.6 36.2931C323.52 36.8238 323 39.6104 323 40.9373V84.7261C323 86.8492 324.733 88.2646 325.6 88.7069C327.333 88.9281 331.32 89.2377 333.4 88.7069C335.48 88.1762 336 85.8319 336 84.7261V40.9373C336 37.2219 334.267 36.2931 333.4 36.2931C331.667 36.0719 327.68 35.7623 325.6 36.2931Z" fill="#8AA79A"/>
<path d="M221.28 35C218.144 35 214.538 35 214 37.0769C214.538 40.4 216.154 43.1 221.28 44C226.385 43.1 227.462 40.4 228 37.0769C227.462 35 224.416 35 221.28 35Z" fill="#6F8F7B"/>
<path d="M113.259 78.4676C112.516 81.5368 110.48 83.7777 109.555 84.5145L106.935 92.6518L115.154 92.2752L123.466 87.5752L131.29 81.0803L135.888 72.5504L135.643 65.7744L129.852 60.4418L120.618 60.828L116.561 65.2563C115.77 68.3813 114.003 75.3985 113.259 78.4676Z" fill="#6F8F7B"/>
<path d="M118.212 89.9491C117.749 86.0781 114.317 83.3235 112.375 82.3629L114.102 77.4403C120.47 79.4499 122.282 85.3136 122.652 88.0322L118.212 89.9491Z" fill="#E9F1ED"/>
<path d="M115.908 69.7599L117.979 64.6781C130.188 66.4471 133.291 73.2888 133.757 76.5785L130.022 81.7326C127.74 74.5048 119.791 70.8277 115.908 69.7599Z" fill="#E9F1ED"/>
<path d="M114.457 74.2522C112.991 81.5368 110.447 84.4813 109.006 84.986L108.177 92.6751C121.747 93.4266 134.844 78.9537 135.9 72.4543C136.955 65.9549 133.439 61.5117 128.592 60.3467C124.715 59.4146 121.677 60.1456 119.387 62.3219C117.098 64.4982 115.923 66.9677 114.457 74.2522Z" stroke="#6F8F7B" stroke-width="3"/>
<path d="M28.3656 66.9918L15.6326 70.8522L15.8711 75.6286C16.5694 77.6296 18.023 81.746 18.251 82.2037C18.479 82.6614 20.3225 85.6834 21.2157 87.1372L27.516 91.0736L37.2908 92.6867L40.39 92.0922L40.0956 86.1948L39.2797 81.154L37.4186 76.7517L36.0544 74.0836L32.2612 70.0221L28.3656 66.9918Z" fill="#6F8F7B"/>
<path d="M18.668 76.173L16.3387 72.6659L16.247 70.8291L16.4927 68.5597C16.7482 67.854 17.2669 66.3946 17.2983 66.2029C17.3298 66.0113 18.0493 64.4627 18.405 63.7123L19.9565 61.9123L21.4962 59.8752L23.8782 58.2714L27.3308 57.5644L29.2505 58.0032L28.8639 59.5075L27.5141 61.238L27.0815 63.8732L28.2231 66.1922L29.8243 69.498L26.9481 68.3942L28.0998 72.9698L23.531 69.8121L23.4479 75.3404L19.7705 71.5442L18.668 76.173Z" fill="#E9F1ED"/>
<path d="M39.9911 88.3115C40.0014 88.1967 39.9095 86.9537 39.9171 86.8303M39.9171 86.8303C39.566 82.4524 38.9631 74.5092 32.0609 70.0152C24.9468 65.3834 27.38 60.7301 29.4858 58.9824C29.9482 58.4448 30.1382 57.4538 27.1995 57.7904C24.2607 58.1271 22.3379 59.4184 21.7439 60.0219C18.5798 62.1984 13.3022 69.3487 17.5046 80.5377C21.707 91.7267 34.2216 93.3114 40.0135 92.4088L39.9171 86.8303Z" stroke="#6F8F7B" stroke-width="3"/>
<path d="M54.8282 15.1027C57.6499 15.5911 60.6162 21.8177 61.7467 24.87C58.1518 24.87 49.7411 33.4163 48.4523 34.9764C47.4214 36.2244 44.9479 42.0531 43.84 44.8115L43.2974 58.5806C42.7548 56.1388 41.2625 33.4163 41.6695 27.7866C42.0765 22.1568 42.9583 19.6472 43.84 18.6976C44.7218 17.748 51.3011 14.4922 54.8282 15.1027Z" fill="#6F8F7B"/>
<path d="M95.4573 15.1027C92.6357 15.5911 89.6693 21.8177 88.5388 24.87C92.1337 24.87 100.544 33.4163 101.833 34.9764C102.864 36.2244 105.338 42.0531 106.446 44.8115L106.988 58.5806C107.531 56.1388 109.023 33.4163 108.616 27.7866C108.209 22.1568 107.327 19.6472 106.446 18.6976C105.564 17.748 98.9844 14.4922 95.4573 15.1027Z" fill="#6F8F7B"/>
<path d="M65.3416 22.7673C64.9799 19.5115 65.83 13 72.1244 13C78.4189 13 78.5003 13 77.7542 13C80.1282 13 84.6727 14.8992 84.4014 23.0386" stroke="#6F8F7B" stroke-width="4"/>
<path d="M42.0086 94.7331L43.8399 47.8638C44.7443 39.4757 52.1286 22.6995 74.4305 22.6995C96.7324 22.6995 104.546 38.5713 106.174 47.8638L107.802 94.7331C107.748 104.772 98.6904 106.648 94.1685 106.332H54.2177C44.3961 106.332 41.986 98.5993 42.0086 94.7331Z" fill="#E9F1ED" stroke="#6F8F7B" stroke-width="4"/>
<path d="M44.5878 23.1772C43.6046 30.5791 44.1781 38.2803 44.5878 41.2057C45.844 37.8857 48.5703 34.2437 49.7764 32.8377C49.0254 29.9804 45.8166 23.8575 45.3387 22.701C44.9564 21.7758 44.6788 22.633 44.5878 23.1772Z" fill="#E9F1ED"/>
<path d="M105.546 23.1772C106.529 30.5791 105.955 38.2803 105.546 41.2057C104.289 37.8857 101.563 34.2437 100.357 32.8377C101.108 29.9804 104.317 23.8575 104.795 22.701C105.177 21.7758 105.455 22.633 105.546 23.1772Z" fill="#E9F1ED"/>
<path d="M42.1485 92.8112C42.1259 96.6774 44.4645 104.41 54.2861 104.41C64.1076 104.41 85.0123 104.41 94.2369 104.41C98.7588 104.726 107.72 102.85 107.774 92.8112" stroke="#6F8F7B" stroke-width="4"/>
<line x1="61" y1="50" x2="61" y2="62" stroke="#6F8F7B" stroke-width="6" stroke-linecap="round"/>
<line x1="89" y1="50" x2="89" y2="62" stroke="#6F8F7B" stroke-width="6" stroke-linecap="round"/>
<path d="M140 34.9038C140 32.9038 141.333 32.4038 142 32.4038C162 29.9038 176 31.4038 178.5 31.9038C180.5 32.3038 181 33.7372 181 34.4038V41.4038C181 43.0038 180 43.4038 179.5 43.4038H167.5C167.833 56.4038 168.5 83.0038 168.5 85.4038C168.5 87.8038 166.833 88.4038 166 88.4038H156C154 88.4038 153.833 86.4038 154 85.4038V43.4038C150.5 43.7372 143.3 44.4038 142.5 44.4038C141.7 44.4038 141.167 43.0705 141 42.4038C140.667 40.7372 140 36.9038 140 34.9038Z" fill="#6F8F7B"/>
<path d="M179.5 85.4038V51.4038C179.5 50.6038 181.167 50.0705 182 49.9038H189.5C192.3 49.9038 192.667 50.9038 192.5 51.4038V55.4038C196.5 50.9038 203.5 49.9038 205.5 49.9038C207.1 49.9038 208.167 50.9038 208.5 51.4038V58.9038C208.5 60.9038 207.167 61.4038 206.5 61.4038C198.9 60.2038 194.333 64.5705 193 66.9038V85.4038C193 88.2038 190.667 88.5705 189.5 88.4038H183C181 88.4038 179.833 86.4038 179.5 85.4038Z" fill="#6F8F7B"/>
<path d="M283.007 51.0004C289.507 49.0005 295.008 48.0005 303.507 49.0004C310.307 49.8005 313.007 53.5008 314.007 59.0004V86.0004C314.007 87.9999 312.674 88.8336 312.007 89.0004H305.507C303.908 89.0004 303.507 88.5 302.507 87.0004V83.5004C294.507 87.5004 278.408 92 278.007 78.0004C277.608 64.0011 293.507 63.5005 301.507 65.0004C301.507 57.5013 297.007 58.5004 294.007 59.0004C291.008 59.5005 290.507 61.0005 286.007 62.0004C283.008 62.6669 280.907 60.1002 280.507 56.5004C280.108 52.9009 282.007 51.3338 283.007 51.0004ZM301.522 72.1508C301.508 71.8948 300.007 70.4097 294.508 70.7192C291.582 70.8839 289.558 72.185 289.794 76.3656C289.99 79.8467 292.998 81.1531 299.129 78.3237C301.582 77.1919 301.568 76.9383 301.522 76.1196C301.476 75.3004 301.613 73.7719 301.522 72.1508Z" fill="#8AA79A"/>
<path d="M75.2 66C72.96 66 70.3846 66 70 67.3846C70.3846 69.6 71.5385 71.4 75.2 72C78.8462 71.4 79.6154 69.6 80 67.3846C79.6154 66 77.44 66 75.2 66Z" fill="#6F8F7B"/>
</svg>
