<svg width="1024" height="1024" viewBox="0 0 1024 1024" fill="none" xmlns="http://www.w3.org/2000/svg">
<rect width="1024" height="1024" fill="#E9F1ED"/>
<path d="M776.442 614.715C771.018 637.106 756.165 653.456 749.417 658.831L730.303 718.199L790.266 715.451L850.906 681.161L907.993 633.776L941.536 571.544L939.745 522.109L897.497 483.203L830.128 486.022L800.531 518.329C794.761 541.128 781.867 592.324 776.442 614.715Z" fill="#6F8F7B"/>
<path d="M812.58 698.48C809.197 670.238 784.157 650.142 769.989 643.133L782.59 607.219C829.051 621.881 842.266 664.661 844.972 684.495L812.58 698.48Z" fill="#E9F1ED"/>
<path d="M795.77 551.186L810.875 514.11C899.948 527.016 922.588 576.931 925.988 600.932L898.738 638.535C882.086 585.803 824.099 558.975 795.77 551.186Z" fill="#E9F1ED"/>
<path d="M785.181 583.96C774.487 637.106 755.928 658.588 745.415 662.27L739.365 718.368C838.367 723.85 933.919 618.261 941.621 570.843C949.324 523.425 923.666 491.009 888.306 482.509C860.018 475.709 837.857 481.042 821.152 496.92C804.447 512.797 795.876 530.814 785.181 583.96Z" stroke="#6F8F7B" stroke-width="16"/>
<path d="M203.509 541.711L107.757 570.741L109.55 606.66C114.801 621.708 125.732 652.663 127.447 656.105C129.162 659.547 143.025 682.272 149.742 693.205L197.12 722.807L270.626 734.937L293.932 730.467L291.718 686.118L285.583 648.211L271.588 615.106L261.329 595.042L232.804 564.499L203.509 541.711Z" fill="#6F8F7B"/>
<path d="M130.583 610.754L113.066 584.381L112.377 570.568L114.225 553.502C116.146 548.195 120.047 537.22 120.283 535.779C120.52 534.338 125.93 522.692 128.606 517.05L140.273 503.514L151.851 488.195L169.764 476.134L195.727 470.818L210.163 474.117L207.257 485.429L197.106 498.443L193.852 518.26L202.437 535.698L214.478 560.558L192.849 552.258L201.51 586.666L167.153 562.921L166.528 604.493L138.874 575.946L130.583 610.754Z" fill="#E9F1ED"/>
<path d="M290.933 702.036C291.011 701.173 290.319 691.826 290.377 690.897M290.377 690.897C287.737 657.975 283.203 598.242 231.298 564.448C177.8 529.616 196.098 494.624 211.933 481.481C215.41 477.438 216.84 469.986 194.74 472.518C172.641 475.049 158.181 484.76 153.714 489.298C129.92 505.666 90.233 559.435 121.835 643.577C153.437 727.719 247.547 739.635 291.102 732.848L290.377 690.897Z" stroke="#6F8F7B" stroke-width="14"/>
<path d="M373.992 199.674C393.684 203.083 414.386 246.538 422.276 267.84C397.187 267.84 338.489 327.485 329.495 338.372C322.299 347.082 305.037 387.761 297.305 407.011L293.518 503.106C289.731 486.064 279.317 327.485 282.158 288.195C284.998 248.905 291.152 231.39 297.305 224.763C303.459 218.136 349.376 195.414 373.992 199.674Z" fill="#6F8F7B"/>
<path d="M657.541 199.674C637.849 203.083 617.147 246.538 609.257 267.84C634.346 267.84 693.044 327.485 702.038 338.372C709.233 347.082 726.496 387.761 734.227 407.011L738.014 503.106C741.801 486.064 752.215 327.485 749.375 288.195C746.535 248.905 740.381 231.39 734.227 224.763C728.074 218.136 682.156 195.414 657.541 199.674Z" fill="#6F8F7B"/>
<path d="M447.364 253.166C444.84 230.444 450.772 185 494.701 185C538.63 185 539.198 185 533.991 185C550.559 185 582.275 198.254 580.382 255.059" stroke="#6F8F7B" stroke-width="20"/>
<path d="M284.524 755.413L297.305 428.313C303.617 369.773 355.151 252.692 510.796 252.692C666.441 252.692 720.973 363.461 732.334 428.313L743.695 755.413C743.316 825.472 680.105 838.568 648.547 836.359H369.731C301.187 836.359 284.367 782.395 284.524 755.413Z" fill="#E9F1ED" stroke="#6F8F7B" stroke-width="18"/>
<path d="M302.524 256.027C295.663 307.684 299.665 361.43 302.524 381.846C311.291 358.677 330.318 333.259 338.736 323.447C333.495 303.506 311.101 260.775 307.765 252.703C305.097 246.246 303.159 252.228 302.524 256.027Z" fill="#E9F1ED"/>
<path d="M727.947 256.027C734.808 307.684 730.806 361.43 727.947 381.846C719.18 358.677 700.153 333.259 691.736 323.447C696.977 303.506 719.371 260.775 722.706 252.703C725.374 246.246 727.312 252.228 727.947 256.027Z" fill="#E9F1ED"/>
<path d="M285.5 742C285.342 768.982 301.664 822.947 370.208 822.947C438.752 822.947 584.645 822.947 649.024 822.947C680.582 825.156 743.121 812.059 743.5 742" stroke="#6F8F7B" stroke-width="18"/>
<line x1="413" y1="434" x2="413" y2="527.176" stroke="#6F8F7B" stroke-width="36" stroke-linecap="round"/>
<line x1="613.941" y1="434" x2="613.941" y2="527.176" stroke="#6F8F7B" stroke-width="36" stroke-linecap="round"/>
<path d="M513.32 545C498.536 545 481.538 545 479 555.385C481.538 572 489.154 585.5 513.32 590C537.385 585.5 542.462 572 545 555.385C542.462 545 528.104 545 513.32 545Z" fill="#6F8F7B"/>
</svg>
