<svg width="400" height="120" viewBox="0 0 400 120" fill="none" xmlns="http://www.w3.org/2000/svg">
<path d="M345.507 54C350.707 46.8 363.007 48 369.007 50.5C375.807 53.7 374.84 58.5 373.507 60.5C372.507 61.3334 370.537 61.7649 368.007 60.5C365.007 59 361.507 58 359.507 58C357.673 58 354.007 58.6716 354.007 61.5C354.007 64.5 358.507 64.2667 365.007 66C372.507 68 376.507 71.5 376.007 78C375.507 84.5 369.507 89 360.507 89C353.307 89 349.174 87.1667 348.007 86.5C346.507 85.8333 343.307 83.8 342.507 81C341.507 77.5 346.452 74.1192 348.507 75C352.007 76.5 350.894 77.6407 356.007 79.5C361.12 81.3593 363.173 79.3334 364.007 78C364.507 76.5 364.507 73.1 359.007 72C353.507 70.9 349.173 69.8334 347.007 68.5C344.34 66.6667 340.307 61.2 345.507 54Z" fill="white"/>
<path d="M254.904 37C262.203 37.4905 274.246 39.9432 274.976 55.6377C275.706 71.3329 259.161 74.9301 250.798 74.7666V85.0664C250.798 87.4207 249.235 88.5 247.12 88.5H241.646C238.48 88.5 238.181 86.2494 238.028 85.0957L238.024 85.0664C237.872 71.0061 238.024 46.8096 238.024 42.8857C238.024 38.9623 241.369 37.4905 242.586 37.4902L254.904 37ZM251.139 48.7734C250.682 48.7734 249.77 48.6758 249.77 50.2451V61.5254C249.77 62.0158 250.044 62.997 251.139 62.9971C252.507 62.9971 262.544 63.4875 262.544 55.1494C262.544 48.479 255.244 48.7734 251.139 48.7734Z" fill="white"/>
<path d="M217.6 48.2224C215.52 48.6251 215 50.7395 215 51.7464V84.9726C215 88.7776 216.387 88.6098 218.12 88.7776C219.853 88.9454 223.32 89.1804 225.4 88.7776C227.48 88.3749 228 85.8117 228 84.9726V51.7464C228 48.9272 226.267 48.2224 225.4 48.2224C223.667 48.0546 219.68 47.8196 217.6 48.2224Z" fill="white"/>
<path d="M325.6 36.2931C323.52 36.8238 323 39.6104 323 40.9373V84.7261C323 86.8492 324.733 88.2646 325.6 88.7069C327.333 88.9281 331.32 89.2377 333.4 88.7069C335.48 88.1762 336 85.8319 336 84.7261V40.9373C336 37.2219 334.267 36.2931 333.4 36.2931C331.667 36.0719 327.68 35.7623 325.6 36.2931Z" fill="white"/>
<path d="M221.28 35C218.144 35 214.538 35 214 37.0769C214.538 40.4 216.154 43.1 221.28 44C226.385 43.1 227.462 40.4 228 37.0769C227.462 35 224.416 35 221.28 35Z" fill="white"/>
<path d="M118.212 89.9491C117.749 86.0781 114.317 83.3235 112.375 82.3629L114.102 77.4403C120.47 79.4499 122.282 85.3136 122.652 88.0322L118.212 89.9491Z" fill="white"/>
<path d="M115.908 69.7599L117.979 64.6781C130.188 66.4471 133.291 73.2888 133.757 76.5785L130.022 81.7326C127.74 74.5048 119.791 70.8277 115.908 69.7599Z" fill="white"/>
<path d="M114.457 74.2522C112.991 81.5368 110.447 84.4813 109.006 84.986L108.177 92.6751C121.747 93.4266 134.844 78.9537 135.9 72.4543C136.955 65.9549 133.439 61.5117 128.592 60.3467C124.715 59.4146 121.677 60.1456 119.387 62.3219C117.098 64.4982 115.923 66.9677 114.457 74.2522Z" stroke="white" stroke-width="3"/>
<path d="M18.668 76.173L16.3387 72.6659L16.247 70.8291L16.4927 68.5597C16.7482 67.854 17.2669 66.3946 17.2983 66.2029C17.3298 66.0113 18.0493 64.4627 18.405 63.7123L19.9565 61.9123L21.4962 59.8752L23.8782 58.2714L27.3308 57.5644L29.2505 58.0032L28.8639 59.5075L27.5141 61.238L27.0815 63.8732L28.2231 66.1922L29.8243 69.498L26.9481 68.3942L28.0998 72.9698L23.531 69.8121L23.4479 75.3404L19.7705 71.5442L18.668 76.173Z" fill="white"/>
<path d="M39.991 88.3115C40.0013 88.1967 39.9093 86.9537 39.917 86.8303M39.917 86.8303C39.5659 82.4524 38.963 74.5092 32.0608 70.0152C24.9467 65.3834 27.3798 60.7301 29.4857 58.9824C29.948 58.4448 30.1381 57.4538 27.1994 57.7904C24.2606 58.1271 22.3378 59.4184 21.7437 60.0219C18.5797 62.1984 13.3021 69.3487 17.5045 80.5377C21.7069 91.7267 34.2215 93.3114 40.0133 92.4088L39.917 86.8303Z" stroke="white" stroke-width="3"/>
<path d="M50.7397 12.2886C51.9767 12.0314 53.332 11.891 54.5688 12.105C55.8806 12.3322 56.9584 13.1597 57.7622 13.9722C58.6009 14.8201 59.3627 15.8786 60.0229 16.9468C61.346 19.0877 62.4242 21.535 63.022 23.1489L64.02 25.8433H61.147C61.0631 25.8433 60.8122 25.8766 60.356 26.064C59.9192 26.2433 59.3956 26.5218 58.7983 26.897C57.6029 27.648 56.2581 28.6941 54.938 29.8286C52.2846 32.1089 49.9468 34.5541 49.394 35.2231C49.2913 35.3476 49.0311 35.7638 48.6304 36.5415C48.2581 37.264 47.833 38.1617 47.397 39.1255C46.5981 40.8914 45.7899 42.8213 45.2397 44.1782V58.5005L41.2876 58.9341C41.1192 58.1761 40.8795 56.0904 40.6245 53.4985C40.3622 50.8315 40.068 47.4527 39.8042 43.9771C39.2829 37.1081 38.8581 29.6124 39.0747 26.6157C39.2832 23.7316 39.6183 21.5636 40.0425 19.9517C40.4551 18.3837 41.0024 17.142 41.7749 16.3101L41.9995 16.0903C42.2355 15.8796 42.4981 15.6957 42.7202 15.5493C43.053 15.33 43.4492 15.0969 43.8833 14.8628C44.753 14.3938 45.8432 13.8823 47.0151 13.4253C48.1842 12.9694 49.475 12.5516 50.7397 12.2886ZM43.7388 21.6743C43.3564 20.7491 43.0778 21.6066 42.9868 22.1509C42.0038 29.5526 42.5772 37.2539 42.9868 40.1792C44.243 36.8593 46.9701 33.217 48.1763 31.811C47.4253 28.9539 44.217 22.8315 43.7388 21.6743Z" fill="white"/>
<path d="M95.4513 12.1045C96.6883 11.8904 98.0433 12.031 99.2804 12.2881C100.545 12.5511 101.836 12.9689 103.005 13.4248C104.177 13.8819 105.268 14.3932 106.138 14.8623C106.572 15.0964 106.968 15.3295 107.301 15.5489C107.523 15.6953 107.786 15.8791 108.022 16.0899L108.246 16.3096C109.019 17.1415 109.566 18.3833 109.979 19.9512C110.403 21.5631 110.738 23.7311 110.946 26.6153C111.164 29.6263 110.665 37.0109 110.074 43.75C109.775 47.1639 109.446 50.4801 109.157 53.0996C108.876 55.6536 108.617 57.6906 108.452 58.4336L104.5 57.96L104.774 44.1573C104.224 42.8014 103.419 40.8821 102.624 39.125C102.188 38.1613 101.763 37.2635 101.391 36.541C100.99 35.7635 100.73 35.3471 100.627 35.2227C100.074 34.5537 97.7365 32.1084 95.0831 29.8282C93.763 28.6937 92.4183 27.6476 91.2228 26.8965C90.6255 26.5213 90.102 26.2429 89.6652 26.0635C89.2087 25.8761 88.958 25.8428 88.8741 25.8428H86.0011L86.9991 23.1485C87.597 21.5344 88.675 19.0873 89.9982 16.9463C90.6584 15.878 91.4201 14.8197 92.2589 13.9717C93.0627 13.1592 94.1395 12.3317 95.4513 12.1045ZM106.881 22.1504C106.79 21.6062 106.512 20.7491 106.13 21.6739C105.652 22.8303 102.444 28.9531 101.693 31.8106C102.899 33.2165 105.625 36.8588 106.881 40.1787C107.291 37.2533 107.864 29.5522 106.881 22.1504Z" fill="white"/>
<path d="M65.3416 22.7673C64.9799 19.5115 65.83 13 72.1244 13C78.4189 13 78.5003 13 77.7542 13C80.1282 13 84.6727 14.8992 84.4014 23.0386" stroke="white" stroke-width="4"/>
<path d="M42.0086 94.7331L43.8399 47.8638C44.7443 39.4757 52.1286 22.6995 74.4305 22.6995C96.7324 22.6995 104.546 38.5713 106.174 47.8638L107.802 94.7331C107.748 104.772 98.6904 106.648 94.1685 106.332H54.2177C44.3961 106.332 41.986 98.5993 42.0086 94.7331Z" stroke="white" stroke-width="4"/>
<path d="M42.1485 92.8112C42.1259 96.6774 44.4645 104.41 54.2861 104.41C64.1076 104.41 85.0123 104.41 94.2369 104.41C98.7588 104.726 107.72 102.85 107.774 92.8112" stroke="white" stroke-width="4"/>
<line x1="61" y1="50" x2="61" y2="62" stroke="white" stroke-width="6" stroke-linecap="round"/>
<line x1="89" y1="50" x2="89" y2="62" stroke="white" stroke-width="6" stroke-linecap="round"/>
<path d="M140 34.9038C140 32.9038 141.333 32.4038 142 32.4038C162 29.9038 176 31.4038 178.5 31.9038C180.5 32.3038 181 33.7372 181 34.4038V41.4038C181 43.0038 180 43.4038 179.5 43.4038H167.5C167.833 56.4038 168.5 83.0038 168.5 85.4038C168.5 87.8038 166.833 88.4038 166 88.4038H156C154 88.4038 153.833 86.4038 154 85.4038V43.4038C150.5 43.7372 143.3 44.4038 142.5 44.4038C141.7 44.4038 141.167 43.0705 141 42.4038C140.667 40.7372 140 36.9038 140 34.9038Z" fill="white"/>
<path d="M179.5 85.4038V51.4038C179.5 50.6038 181.167 50.0705 182 49.9038H189.5C192.3 49.9038 192.667 50.9038 192.5 51.4038V55.4038C196.5 50.9038 203.5 49.9038 205.5 49.9038C207.1 49.9038 208.167 50.9038 208.5 51.4038V58.9038C208.5 60.9038 207.167 61.4038 206.5 61.4038C198.9 60.2038 194.333 64.5705 193 66.9038V85.4038C193 88.2038 190.667 88.5705 189.5 88.4038H183C181 88.4038 179.833 86.4038 179.5 85.4038Z" fill="white"/>
<path d="M283.007 50.9998C289.507 48.9998 295.007 47.9999 303.507 48.9998C310.307 49.7997 313.007 53.5003 314.007 58.9998V85.9998C314.007 87.9998 312.674 88.8331 312.007 88.9998H305.507C303.907 88.9997 303.507 88.4996 302.507 86.9998V83.4998C294.507 87.4998 278.407 91.9997 278.007 77.9998C277.608 64.0009 293.507 63.4999 301.507 64.9998C301.507 57.5007 297.007 58.4998 294.007 58.9998C291.007 59.4998 290.507 60.9998 286.007 61.9998C283.007 62.6662 280.907 60.0997 280.507 56.4998C280.107 52.9006 282.007 51.3332 283.007 50.9998ZM301.523 72.1511C301.508 71.8952 300.007 70.4099 294.508 70.7195C291.582 70.8843 289.558 72.1855 289.793 76.366C289.989 79.8469 292.999 81.1526 299.13 78.323C301.582 77.1912 301.569 76.938 301.523 76.1189C301.476 75.2998 301.614 73.772 301.523 72.1511Z" fill="white"/>
<path d="M75.2 66C72.96 66 70.3846 66 70 67.3846C70.3846 69.6 71.5385 71.4 75.2 72C78.8462 71.4 79.6154 69.6 80 67.3846C79.6154 66 77.44 66 75.2 66Z" fill="white"/>
</svg>
